<!DOCTYPE svg PUBLIC "-//W3C//DTD SVG 1.1//EN" "http://www.w3.org/Graphics/SVG/1.1/DTD/svg11.dtd">
<!-- Uploaded to: SVG Repo, www.svgrepo.com, Transformed by: SVG Repo Mixer Tools -->
<svg fill="#c74343" width="800px" height="800px" viewBox="-4.8 -4.8 33.60 33.60" id="information-chat" data-name="Flat Line" xmlns="http://www.w3.org/2000/svg" class="icon flat-line" stroke="#c74343">
<g id="SVGRepo_bgCarrier" stroke-width="0">
<rect x="-4.8" y="-4.8" width="33.60" height="33.60" rx="16.8" fill="#7ed0ec" strokewidth="0"/>
</g>
<g id="SVGRepo_tracerCarrier" stroke-linecap="round" stroke-linejoin="round"/>
<g id="SVGRepo_iconCarrier">
<path id="secondary" d="M10.54,3.11A9,9,0,0,0,4,16.11l-.7,3.41A1,1,0,0,0,4.48,20.7L7.87,20h0A9,9,0,1,0,10.54,3.11Z" style="fill: #c14493; stroke-width: 2;"/>
<line id="primary-upstroke" x1="12.05" y1="8" x2="11.95" y2="8" style="fill: none; stroke: #fffafa; stroke-linecap: round; stroke-linejoin: round; stroke-width: 2.5;"/>
<path id="primary" d="M12,13v3M10.54,3.11A9,9,0,0,0,4,16.11l-.7,3.41A1,1,0,0,0,4.48,20.7L7.87,20h0A9,9,0,1,0,10.54,3.11Z" style="fill: none; stroke: #fffafa; stroke-linecap: round; stroke-linejoin: round; stroke-width: 2;"/>
</g>
</svg>